<svg width="210" height="210" viewBox="0 0 21 21" fill="currentColor" xmlns="http://www.w3.org/2000/svg">
<symbol id="flop">
<rect id="Rectangle 18" width="1.61538" height="1.61538" fill="currentColor"/>
<rect id="Rectangle 17" y="1.61536" width="1.61538" height="1.61538" fill="currentColor"/>
<rect id="Rectangle 19" y="3.23077" width="1.61538" height="1.61538" fill="currentColor"/>
<rect id="Rectangle 20" y="4.84613" width="1.61538" height="1.61538" fill="currentColor"/>
<rect id="Rectangle 21" y="6.46155" width="1.61538" height="1.61538" fill="currentColor"/>
<rect id="Rectangle 22" y="8.0769" width="1.61538" height="1.61538" fill="currentColor"/>
<rect id="Rectangle 23" y="9.69232" width="1.61538" height="1.61538" fill="currentColor"/>
<rect id="Rectangle 24" y="11.3077" width="1.61538" height="1.61538" fill="currentColor"/>
<rect id="Rectangle 25" y="12.9231" width="1.61538" height="1.61538" fill="currentColor"/>
<rect id="Rectangle 26" y="14.5385" width="1.61538" height="1.61538" fill="currentColor"/>
<rect id="Rectangle 27" y="16.1539" width="1.61538" height="1.61538" fill="currentColor"/>
<rect id="Rectangle 28" y="17.7692" width="1.61538" height="1.61538" fill="currentColor"/>
<rect id="Rectangle 29" y="19.3846" width="1.61538" height="1.61538" fill="currentColor"/>
<rect id="Rectangle 32" x="17.7692" width="1.61538" height="1.61538" transform="rotate(90 17.7692 0)" fill="currentColor"/>
<rect id="Rectangle 33" x="16.1539" width="1.61538" height="1.61538" transform="rotate(90 16.1539 0)" fill="currentColor"/>
<rect id="Rectangle 34" x="14.5385" width="1.61538" height="1.61538" transform="rotate(90 14.5385 0)" fill="currentColor"/>
<rect id="Rectangle 35" x="12.9231" width="1.61538" height="1.61538" transform="rotate(90 12.9231 0)" fill="currentColor"/>
<rect id="Rectangle 36" x="11.3077" width="1.61538" height="1.61538" transform="rotate(90 11.3077 0)" fill="currentColor"/>
<rect id="Rectangle 37" x="9.69232" width="1.61538" height="1.61538" transform="rotate(90 9.69232 0)" fill="currentColor"/>
<rect id="Rectangle 38" x="8.0769" width="1.61538" height="1.61538" transform="rotate(90 8.0769 0)" fill="currentColor"/>
<rect id="Rectangle 39" x="6.46155" width="1.61538" height="1.61538" transform="rotate(90 6.46155 0)" fill="currentColor"/>
<rect id="Rectangle 40" x="4.84613" width="1.61538" height="1.61538" transform="rotate(90 4.84613 0)" fill="currentColor"/>
<rect id="Rectangle 41" x="3.23077" width="1.61538" height="1.61538" transform="rotate(90 3.23077 0)" fill="currentColor"/>
<rect id="Rectangle 65" x="19.3846" y="1.61536" width="1.61538" height="1.61538" transform="rotate(90 19.3846 1.61536)" fill="currentColor"/>
<rect id="Rectangle 85" x="4.84613" y="3.23077" width="1.61538" height="1.61538" transform="rotate(90 4.84613 3.23077)" fill="currentColor"/>
<rect id="Rectangle 176" x="4.84613" y="1.61536" width="1.61538" height="1.61538" transform="rotate(90 4.84613 1.61536)" fill="currentColor"/>
<rect id="Rectangle 96" x="4.84613" y="4.84613" width="1.61538" height="1.61538" transform="rotate(90 4.84613 4.84613)" fill="currentColor"/>
<rect id="Rectangle 177" x="16.1539" y="3.23077" width="1.61538" height="1.61538" transform="rotate(90 16.1539 3.23077)" fill="currentColor"/>
<rect id="Rectangle 178" x="16.1539" y="1.61536" width="1.61538" height="1.61538" transform="rotate(90 16.1539 1.61536)" fill="currentColor"/>
<rect id="Rectangle 179" x="16.1539" y="4.84613" width="1.61538" height="1.61538" transform="rotate(90 16.1539 4.84613)" fill="currentColor"/>
<rect id="Rectangle 180" x="12.9231" y="3.23077" width="1.61538" height="1.61538" transform="rotate(90 12.9231 3.23077)" fill="currentColor"/>
<rect id="Rectangle 181" x="12.9231" y="1.61536" width="1.61538" height="1.61538" transform="rotate(90 12.9231 1.61536)" fill="currentColor"/>
<rect id="Rectangle 182" x="12.9231" y="4.84613" width="1.61538" height="1.61538" transform="rotate(90 12.9231 4.84613)" fill="currentColor"/>
<rect id="Rectangle 100" x="16.1539" y="6.46155" width="1.61538" height="1.61538" transform="rotate(90 16.1539 6.46155)" fill="currentColor"/>
<rect id="Rectangle 101" x="14.5385" y="6.46155" width="1.61538" height="1.61538" transform="rotate(90 14.5385 6.46155)" fill="currentColor"/>
<rect id="Rectangle 102" x="12.9231" y="6.46155" width="1.61538" height="1.61538" transform="rotate(90 12.9231 6.46155)" fill="currentColor"/>
<rect id="Rectangle 103" x="11.3077" y="6.46155" width="1.61538" height="1.61538" transform="rotate(90 11.3077 6.46155)" fill="currentColor"/>
<rect id="Rectangle 104" x="9.69232" y="6.46155" width="1.61538" height="1.61538" transform="rotate(90 9.69232 6.46155)" fill="currentColor"/>
<rect id="Rectangle 105" x="8.0769" y="6.46155" width="1.61538" height="1.61538" transform="rotate(90 8.0769 6.46155)" fill="currentColor"/>
<rect id="Rectangle 106" x="6.46155" y="6.46155" width="1.61538" height="1.61538" transform="rotate(90 6.46155 6.46155)" fill="currentColor"/>
<rect id="Rectangle 107" x="4.84613" y="6.46155" width="1.61538" height="1.61538" transform="rotate(90 4.84613 6.46155)" fill="currentColor"/>
<rect id="Rectangle 132" x="17.7692" y="11.3077" width="1.61538" height="1.61538" transform="rotate(90 17.7692 11.3077)" fill="currentColor"/>
<rect id="Rectangle 133" x="16.1539" y="11.3077" width="1.61538" height="1.61538" transform="rotate(90 16.1539 11.3077)" fill="currentColor"/>
<rect id="Rectangle 134" x="14.5385" y="11.3077" width="1.61538" height="1.61538" transform="rotate(90 14.5385 11.3077)" fill="currentColor"/>
<rect id="Rectangle 135" x="12.9231" y="11.3077" width="1.61538" height="1.61538" transform="rotate(90 12.9231 11.3077)" fill="currentColor"/>
<rect id="Rectangle 136" x="11.3077" y="11.3077" width="1.61538" height="1.61538" transform="rotate(90 11.3077 11.3077)" fill="currentColor"/>
<rect id="Rectangle 137" x="9.69232" y="11.3077" width="1.61538" height="1.61538" transform="rotate(90 9.69232 11.3077)" fill="currentColor"/>
<rect id="Rectangle 138" x="8.0769" y="11.3077" width="1.61538" height="1.61538" transform="rotate(90 8.0769 11.3077)" fill="currentColor"/>
<rect id="Rectangle 139" x="6.46155" y="11.3077" width="1.61538" height="1.61538" transform="rotate(90 6.46155 11.3077)" fill="currentColor"/>
<rect id="Rectangle 140" x="4.84613" y="11.3077" width="1.61538" height="1.61538" transform="rotate(90 4.84613 11.3077)" fill="currentColor"/>
<rect id="Rectangle 143" x="17.7692" y="12.9231" width="1.61538" height="1.61538" transform="rotate(90 17.7692 12.9231)" fill="currentColor"/>
<rect id="Rectangle 151" x="4.84613" y="12.9231" width="1.61538" height="1.61538" transform="rotate(90 4.84613 12.9231)" fill="currentColor"/>
<rect id="Rectangle 154" x="17.7692" y="14.5385" width="1.61538" height="1.61538" transform="rotate(90 17.7692 14.5385)" fill="currentColor"/>
<rect id="Rectangle 162" x="4.84613" y="14.5385" width="1.61538" height="1.61538" transform="rotate(90 4.84613 14.5385)" fill="currentColor"/>
<rect id="Rectangle 165" x="17.7692" y="16.1539" width="1.61538" height="1.61538" transform="rotate(90 17.7692 16.1539)" fill="currentColor"/>
<rect id="Rectangle 173" x="4.84613" y="16.1539" width="1.61538" height="1.61538" transform="rotate(90 4.84613 16.1539)" fill="currentColor"/>
<rect id="Rectangle 174" x="4.84613" y="17.7692" width="1.61538" height="1.61538" transform="rotate(90 4.84613 17.7692)" fill="currentColor"/>
<rect id="Rectangle 175" x="17.7692" y="17.7692" width="1.61538" height="1.61538" transform="rotate(90 17.7692 17.7692)" fill="currentColor"/>
<rect id="Rectangle 54" x="19.3846" y="19.3846" width="1.61538" height="1.61538" transform="rotate(90 19.3846 19.3846)" fill="currentColor"/>
<rect id="Rectangle 55" x="17.7692" y="19.3846" width="1.61538" height="1.61538" transform="rotate(90 17.7692 19.3846)" fill="currentColor"/>
<rect id="Rectangle 56" x="16.1539" y="19.3846" width="1.61538" height="1.61538" transform="rotate(90 16.1539 19.3846)" fill="currentColor"/>
<rect id="Rectangle 57" x="14.5385" y="19.3846" width="1.61538" height="1.61538" transform="rotate(90 14.5385 19.3846)" fill="currentColor"/>
<rect id="Rectangle 58" x="12.9231" y="19.3846" width="1.61538" height="1.61538" transform="rotate(90 12.9231 19.3846)" fill="currentColor"/>
<rect id="Rectangle 59" x="11.3077" y="19.3846" width="1.61538" height="1.61538" transform="rotate(90 11.3077 19.3846)" fill="currentColor"/>
<rect id="Rectangle 60" x="9.69232" y="19.3846" width="1.61538" height="1.61538" transform="rotate(90 9.69232 19.3846)" fill="currentColor"/>
<rect id="Rectangle 61" x="8.0769" y="19.3846" width="1.61538" height="1.61538" transform="rotate(90 8.0769 19.3846)" fill="currentColor"/>
<rect id="Rectangle 62" x="6.46155" y="19.3846" width="1.61538" height="1.61538" transform="rotate(90 6.46155 19.3846)" fill="currentColor"/>
<rect id="Rectangle 63" x="4.84613" y="19.3846" width="1.61538" height="1.61538" transform="rotate(90 4.84613 19.3846)" fill="currentColor"/>
<rect id="Rectangle 64" x="3.23077" y="19.3846" width="1.61538" height="1.61538" transform="rotate(90 3.23077 19.3846)" fill="currentColor"/>
<rect id="Rectangle 42" x="21" y="21" width="1.61538" height="1.61538" transform="rotate(-180 21 21)" fill="currentColor"/>
<rect id="Rectangle 43" x="21" y="19.3846" width="1.61538" height="1.61538" transform="rotate(-180 21 19.3846)" fill="currentColor"/>
<rect id="Rectangle 44" x="21" y="17.7692" width="1.61538" height="1.61538" transform="rotate(-180 21 17.7692)" fill="currentColor"/>
<rect id="Rectangle 45" x="21" y="16.1539" width="1.61538" height="1.61538" transform="rotate(-180 21 16.1539)" fill="currentColor"/>
<rect id="Rectangle 46" x="21" y="14.5385" width="1.61538" height="1.61538" transform="rotate(-180 21 14.5385)" fill="currentColor"/>
<rect id="Rectangle 47" x="21" y="12.9231" width="1.61538" height="1.61538" transform="rotate(-180 21 12.9231)" fill="currentColor"/>
<rect id="Rectangle 48" x="21" y="11.3077" width="1.61538" height="1.61538" transform="rotate(-180 21 11.3077)" fill="currentColor"/>
<rect id="Rectangle 49" x="21" y="9.69232" width="1.61538" height="1.61538" transform="rotate(-180 21 9.69232)" fill="currentColor"/>
<rect id="Rectangle 50" x="21" y="8.0769" width="1.61538" height="1.61538" transform="rotate(-180 21 8.0769)" fill="currentColor"/>
<rect id="Rectangle 51" x="21" y="6.46155" width="1.61538" height="1.61538" transform="rotate(-180 21 6.46155)" fill="currentColor"/>
<rect id="Rectangle 52" x="21" y="4.84613" width="1.61538" height="1.61538" transform="rotate(-180 21 4.84613)" fill="currentColor"/>
</symbol>
</svg>
